name C:\Users\antoi\Documents\MyRepositories\upper-imu-dc\Results\main_tracking\Case_69\FLX01_angularVelocities_bodyFrame.mot
datacolumns 4
datarows 82
range 3.51000000 4.32000000
endheader 
time	radius_imu_x	radius_imu_y	radius_imu_z	
          3.51000000	          0.02257501	          0.08381783	          0.07923905	
          3.52000000	          0.02735662	          0.08274851	          0.07710686	
          3.53000000	          0.03215644	          0.08179178	          0.07429259	
          3.54000000	          0.03683350	          0.08110424	          0.07089739	
          3.55000000	          0.04125060	          0.08082689	          0.06704213	
          3.56000000	          0.04529271	          0.08102599	          0.06285416	
          3.57000000	          0.04887480	          0.08164322	          0.05846188	
          3.58000000	          0.05194395	          0.08254683	          0.05400912	
          3.59000000	          0.05449447	          0.08356066	          0.04964061	
          3.60000000	          0.05656068	          0.08441365	          0.04549283	
          3.61000000	          0.05821171	          0.08479316	          0.04170355	
          3.62000000	          0.05954517	          0.08436457	          0.03840950	
          3.63000000	          0.06067904	          0.08280381	          0.03574665	
          3.64000000	          0.06174209	          0.07982548	          0.03385048	
          3.65000000	          0.06286501	          0.07520448	          0.03285546	
          3.66000000	          0.06417199	          0.06878916	          0.03289413	
          3.67000000	          0.06577341	          0.06050649	          0.03409563	
          3.68000000	          0.06776052	          0.05036219	          0.03658353	
          3.69000000	          0.07020223	          0.03843720	          0.04047257	
          3.70000000	          0.07314385	          0.02488100	          0.04586440	
          3.71000000	          0.07660812	          0.00990356	          0.05284302	
          3.72000000	          0.08059679	         -0.00623440	          0.06147068	
          3.73000000	          0.08509258	         -0.02323104	          0.07178500	
          3.74000000	          0.09006120	         -0.04075398	          0.08379792	
          3.75000000	          0.09545292	         -0.05845543	          0.09749595	
          3.76000000	          0.10120395	         -0.07599318	          0.11284201	
          3.77000000	          0.10723817	         -0.09305454	          0.12977847	
          3.78000000	          0.11346976	         -0.10937715	          0.14823136	
          3.79000000	          0.11980685	         -0.12476034	          0.16811533	
          3.80000000	          0.12615586	         -0.13906591	          0.18933884	
          3.81000000	          0.13242567	         -0.15221212	          0.21180910	
          3.82000000	          0.13853122	         -0.16416660	          0.23543621	
          3.83000000	          0.14439671	         -0.17494248	          0.26013651	
          3.84000000	          0.14995842	         -0.18459873	          0.28583458	
          3.85000000	          0.15516763	         -0.19324108	          0.31246414	
          3.86000000	          0.15999307	         -0.20101787	          0.33996769	
          3.87000000	          0.16442238	         -0.20810940	          0.36829516	
          3.88000000	          0.16846276	         -0.21471217	          0.39740198	
          3.89000000	          0.17214148	         -0.22102192	          0.42724677	
          3.90000000	          0.17550606	         -0.22721887	          0.45778929	
          3.91000000	          0.17862422	         -0.23345834	          0.48898930	
          3.92000000	          0.18158362	         -0.23986953	          0.52080652	
          3.93000000	          0.18449170	         -0.24656268	          0.55320120	
          3.94000000	          0.18747498	         -0.25364080	          0.58613432	
          3.95000000	          0.19067813	         -0.26120646	          0.61956688	
          3.96000000	          0.19426155	         -0.26936848	          0.65345607	
          3.97000000	          0.19839815	         -0.27822069	          0.68775306	
          3.98000000	          0.20326421	         -0.28784165	          0.72239678	
          3.99000000	          0.20903206	         -0.29827706	          0.75730676	
          4.00000000	          0.21586724	         -0.30947960	          0.79238355	
          4.01000000	          0.22391391	         -0.32133758	          0.82750201	
          4.02000000	          0.23328491	         -0.33368960	          0.86250812	
          4.03000000	          0.24405849	         -0.34632148	          0.89722040	
          4.04000000	          0.25627358	         -0.35900913	          0.93142945	
          4.05000000	          0.26992933	         -0.37155214	          0.96490118	
          4.06000000	          0.28498779	         -0.38381244	          0.99738077	
          4.07000000	          0.30137867	         -0.39574892	          1.02859790	
          4.08000000	          0.31900451	         -0.40744029	          1.05827339	
          4.09000000	          0.33774729	         -0.41908834	          1.08612799	
          4.10000000	          0.35747557	         -0.43099721	          1.11189330	
          4.11000000	          0.37805166	         -0.44353533	          1.13532356	
          4.12000000	          0.39933996	         -0.45708275	          1.15620713	
          4.13000000	          0.42121514	         -0.47197529	          1.17437646	
          4.14000000	          0.44356940	         -0.48845637	          1.18971540	
          4.15000000	          0.46631789	         -0.50664330	          1.20216358	
          4.16000000	          0.48940130	         -0.52650706	          1.21171752	
          4.17000000	          0.51278496	         -0.54785979	          1.21842866	
          4.18000000	          0.53645415	         -0.57034543	          1.22239903	
          4.19000000	          0.56040629	         -0.59343575	          1.22377549	
          4.20000000	          0.58464068	         -0.61643968	          1.22274403	
          4.21000000	          0.60914724	         -0.63853240	          1.21952458	
          4.22000000	          0.63389554	         -0.65880377	          1.21436596	
          4.23000000	          0.65882577	         -0.67632137	          1.20754010	
          4.24000000	          0.68384421	         -0.69020406	          1.19933505	
          4.25000000	          0.70882557	         -0.69970598	          1.19004668	
          4.26000000	          0.73362303	         -0.70430947	          1.17996911	
          4.27000000	          0.75808468	         -0.70381398	          1.16938413	
          4.28000000	          0.78207176	         -0.69839364	          1.15854970	
          4.29000000	          0.80547430	         -0.68860218	          1.14768939	
          4.30000000	          0.82822223	         -0.67533002	          1.13698517	
          4.31000000	          0.85029277	         -0.65973558	          1.12657465	
          4.32000000	          0.87171439	         -0.64316256	          1.11655167	
